<svg data-v-35170ea5="" version="1.1" viewBox="0 0 20 20" class="svg-icon svg-fill" style="width: 20px; height: 20px;"><g _fill="#887E7E" fill-rule="nonzero"><path pid="0" d="M9.375 1.916L2.288 6.008a1.25 1.25 0 00-.625 1.082v9.295c0 .967.784 1.75 1.75 1.75h13.174a1.75 1.75 0 001.75-1.75V7.09c0-.446-.239-.859-.625-1.082l-7.087-4.092a1.25 1.25 0 00-1.118-.066l-.132.066zM10 3.288l6.837 3.947v9.15a.25.25 0 01-.25.25H3.413a.25.25 0 01-.25-.25v-9.15L10 3.288z"></path><path pid="1" d="M13.304 9.229H6.696a.75.75 0 000 1.5h6.608a.75.75 0 000-1.5zM13.304 12.229H6.696a.75.75 0 100 1.5h6.608a.75.75 0 000-1.5z"></path></g></svg>